#!OML:ASF I:\Actors\actors\Patient Classification 2\Patient 1\Session 1\actor1.ASF
:FULLY-SPECIFIED
:DEGREES

351
root -0.524729 18.0715 5.95867 3.48319 -32.0202 -1.91247
lowerback 2.92541 -7.59969 -2.8647
upperback -2.95897 -10.2169 2.70049
thorax -3.69877 -4.98187 4.90876
lowerneck -9.27908 4.5467 13.4534
upperneck 30.3358 1.84444 3.59187
head 11.7511 2.56532 -0.749008
rclavicle -1.22166e-013 3.57812e-015
rhumerus 37.8705 44.0503 1.80346
rradius 139.371
rwrist -90.0802
rhand -1.3967 -57.2755
rfingers 7.12502
rthumb 24.2519 -85.7617
lclavicle -1.22166e-013 3.57812e-015
lhumerus 23.1718 29.0102 87.1826
lradius 65.0133
lwrist 80.6473
lhand -39.0531 -1.1407
lfingers 7.12502
lthumb -12.0548 28.4921
rfemur 8.39174 17.0346 13.3165
rtibia -19.6763
rfoot 3.89512 -6.18985
rtoes -0.734774
lfemur 14.2116 19.8459 -13.2742
ltibia 3.49861e-014
lfoot -18.5086 14.2265
ltoes 4.76014
352
root -0.525024 18.0723 5.96212 3.52856 -32.0093 -1.97982
lowerback 2.90988 -7.59775 -2.81291
upperback -2.94071 -10.2114 2.69212
thorax -3.68185 -4.98142 4.86866
lowerneck -9.32761 4.55844 13.4973
upperneck 30.2981 1.84815 3.59136
head 11.7479 2.57116 -0.755127
rclavicle 5.32246e-014 -1.66979e-014
rhumerus 37.6494 44.0698 1.74499
rradius 139.352
rwrist -90.0772
rhand -1.23014 -57.2935
rfingers 7.12502
rthumb 24.4116 -85.7583
lclavicle 5.32246e-014 -1.66979e-014
lhumerus 23.1941 28.9817 87.0999
lradius 65.002
lwrist 80.6916
lhand -38.9595 -1.12051
lfingers 7.12502
lthumb -11.9646 28.5176
rfemur 8.38171 16.9843 13.3826
rtibia -19.6614
rfoot 3.92386 -6.1693
rtoes -0.882081
lfemur 14.2099 19.8511 -13.2136
ltibia -7.95139e-015
lfoot -18.5197 14.2136
ltoes 4.70572
353
root -0.525638 18.073 5.96496 3.59402 -31.9834 -2.03273
lowerback 2.87664 -7.60656 -2.75991
upperback -2.93666 -10.2204 2.67025
thorax -3.6711 -4.988 4.81334
lowerneck -9.40833 4.57795 13.6056
upperneck 30.3474 1.84757 3.54559
head 11.7885 2.58089 -0.787451
rclavicle -1.0179e-013 6.36111e-015
rhumerus 37.2553 44.1268 1.67439
rradius 139.353
rwrist -90.0496
rhand -1.05627 -57.1401
rfingers 7.12502
rthumb 24.5783 -85.5823
lclavicle -1.0179e-013 6.36111e-015
lhumerus 23.2034 28.9732 87.0144
lradius 65.0259
lwrist 80.8156
lhand -38.9938 -1.18844
lfingers 7.12502
lthumb -11.9976 28.4477
rfemur 8.34012 17.015 13.4171
rtibia -19.6431
rfoot 3.8636 -6.27389
rtoes -0.234511
lfemur 14.1681 19.8449 -13.1778
ltibia -4.45278e-014
lfoot -18.498 14.2105
ltoes 4.69658
354
root -0.526411 18.0732 5.96738 3.63253 -31.9368 -2.05969
lowerback 2.86299 -7.61924 -2.76315
upperback -2.94001 -10.237 2.68533
thorax -3.66207 -4.99637 4.82895
lowerneck -9.46314 4.59103 13.5783
upperneck 30.38 1.86472 3.53453
head 11.8124 2.58682 -0.783406
rclavicle 1.00461e-013 1.96797e-014
rhumerus 36.728 44.2182 1.66245
rradius 139.331
rwrist -89.9744
rhand -0.802416 -56.9878
rfingers 7.12502
rthumb 24.8216 -85.3968
lclavicle 1.00461e-013 1.96797e-014
lhumerus 23.2221 29.0115 87.026
lradius 65.0567
lwrist 80.8263
lhand -39.0921 -1.2629
lfingers 7.12502
lthumb -12.0924 28.3677
rfemur 8.32754 17.0621 13.4354
rtibia -19.6227
rfoot 3.79245 -6.35506
rtoes 0.186482
lfemur 14.1344 19.8162 -13.1625
ltibia 2.38542e-014
lfoot -18.483 14.2264
ltoes 4.62372
355
root -0.526253 18.0731 5.97049 3.63831 -31.885 -2.0501
lowerback 2.85605 -7.62138 -2.81197
upperback -2.93887 -10.2414 2.71183
thorax -3.64343 -4.99775 4.8803
lowerneck -9.47648 4.57038 13.4058
upperneck 30.3211 1.85409 3.61631
head 11.7839 2.57056 -0.726991
rclavicle -1.06971e-013 -1.88845e-014
rhumerus 35.7475 44.3264 1.62376
rradius 139.231
rwrist -89.7944
rhand -0.161363 -56.704
rfingers 7.12502
rthumb 25.4358 -85.0269
lclavicle -1.06971e-013 -1.88845e-014
lhumerus 23.2604 28.9968 87.0606
lradius 65.0605
lwrist 80.7171
lhand -39.1554 -1.30959
lfingers 7.12502
lthumb -12.1535 28.3174
rfemur 8.33658 17.056 13.425
rtibia -19.6159
rfoot 3.78037 -6.35975
rtoes -0.0611479
lfemur 14.1168 19.7806 -13.181
ltibia -4.6118e-014
lfoot -18.5072 14.2431
ltoes 4.5292
356
root -0.525875 18.0734 5.97422 3.6457 -31.8536 -2.03057
lowerback 2.81863 -7.61191 -2.82115
upperback -2.93331 -10.2288 2.69627
thorax -3.61915 -4.99222 4.86259
lowerneck -9.45702 4.54205 13.3176
upperneck 30.2446 1.82946 3.66752
head 11.7444 2.55232 -0.698349
rclavicle -2.67241e-014 -2.20651e-014
rhumerus 36.7118 44.3974 1.67257
rradius 139.243
rwrist -89.827
rhand -0.794474 -56.909
rfingers 7.12502
rthumb 24.8292 -85.3169
lclavicle -2.67241e-014 -2.20651e-014
lhumerus 23.2762 28.9037 87.0195
lradius 65.0594
lwrist 80.6102
lhand -39.0857 -1.28254
lfingers 7.12502
lthumb -12.0863 28.3484
rfemur 8.33357 17.0602 13.3926
rtibia -19.6238
rfoot 3.75132 -6.38505
rtoes -0.110659
lfemur 14.1016 19.7658 -13.2119
ltibia -6.36111e-015
lfoot -18.5331 14.2275
ltoes 4.48508
357
root -0.526407 18.0731 5.97743 3.62466 -31.817 -2.00916
lowerback 2.81166 -7.61297 -2.8228
upperback -2.92225 -10.2309 2.66225
thorax -3.6094 -4.99387 4.82685
lowerneck -9.44547 4.56008 13.4109
upperneck 30.2028 1.87019 3.57733
head 11.7304 2.569 -0.7423
rclavicle -4.50868e-014 -3.97569e-015
rhumerus 36.9691 44.5067 1.59742
rradius 139.247
rwrist -89.7815
rhand -1.05669 -56.9669
rfingers 7.12502
rthumb 24.5779 -85.4092
lclavicle -4.50868e-014 -3.97569e-015
lhumerus 23.2686 28.8713 86.9731
lradius 65.0799
lwrist 80.6178
lhand -39.022 -1.25836
lfingers 7.12502
lthumb -12.0248 28.3762
rfemur 8.36983 17.0748 13.3719
rtibia -19.6359
rfoot 3.69509 -6.44676
rtoes 0.106274
lfemur 14.117 19.7411 -13.2288
ltibia -1.59028e-015
lfoot -18.5337 14.2191
ltoes 4.48806
